# xmcd
#
# Track frame offsets:
#	150
#	8463
#	21225
#	31653
#	41222
#	58168
#	74660
#	87542
#	97469
#	107828
#	121579
#	145164
#	155747
#	169773
#	182662
#	196774
#	214738
#	226982
#	239800
#	254222
#
# Disc length: 3529 seconds
#
# Revision: 0
# Processed by: cddbd v1.5.2PL0 Copyright (c) Steve Scherf et al.
# Submitted via: EZCDAudioConverter 1.5.5.1
#
DISCID=270dc714
DTITLE=Pavel Bobek - Kdyz na ta leta vzpominam
DYEAR=2010
DGENRE=Pop
TTITLE0=Keep on
TTITLE1=Oh Ruby, nechtej mi lasku brat
TTITLE2=Hold me tight
TTITLE3=Rano tu zasluhu ma
TTITLE4=Krizem krazem
TTITLE5=Usvit
TTITLE6=Houston
TTITLE7=Ma divka N
TTITLE8=K mym snum vejdi
TTITLE9=Krajem ja sel
TTITLE10=Stryc Albert
TTITLE11=Ja jsem byl bloud
TTITLE12=Let it be me
TTITLE13=Summer in the city
TTITLE14=Ved me dal cesto ma
TTITLE15=Vincent
TTITLE16=Dik ze smim par pratel mit
TTITLE17=Pojd stoupat jak dym
TTITLE18=Tak ja se loucim
TTITLE19=Come on everybody
EXTD=
EXTT0=
EXTT1=
EXTT2=
EXTT3=
EXTT4=
EXTT5=
EXTT6=
EXTT7=
EXTT8=
EXTT9=
EXTT10=
EXTT11=
EXTT12=
EXTT13=
EXTT14=
EXTT15=
EXTT16=
EXTT17=
EXTT18=
EXTT19=
PLAYORDER=
